<!DOCTYPE svg PUBLIC "-//W3C//DTD SVG 1.1//EN" "http://www.w3.org/Graphics/SVG/1.1/DTD/svg11.dtd">

<!-- Uploaded to: SVG Repo, www.svgrepo.com, Transformed by: SVG Repo Mixer Tools -->
<svg height="800px" width="800px" version="1.1" id="Layer_1" xmlns="http://www.w3.org/2000/svg" xmlns:xlink="http://www.w3.org/1999/xlink" viewBox="0 0 512.00 512.00" xml:space="preserve" fill="#000000" stroke="#000000" strokeWidth="7.168000000000001">

<g id="SVGRepo_bgCarrier" strokeWidth="0"/>

<g id="SVGRepo_tracerCarrier" strokeLinecap="round" strokeLinejoin="round"/>

<g id="SVGRepo_iconCarrier"> <path style="fill:#F2F2F2;" d="M430.936,353.591c0-96.615-78.321-174.936-174.936-174.936S81.064,256.977,81.064,353.591"/> <path style="fill:#E6E6E6;" d="M277.846,180.011c-7.157-0.892-14.447-1.356-21.846-1.356c-96.615,0-174.936,78.321-174.936,174.936 h43.691C124.755,264.376,191.543,190.763,277.846,180.011z"/> <path style="fill:#154660;" d="M446.387,353.591v22.312c0,12.778-10.358,23.135-23.135,23.135H88.75 c-12.778,0-23.135-10.358-23.135-23.135v-22.312"/> <path style="fill:#140561;" d="M102.306,375.902V353.59H65.613v22.312c0,12.778,10.358,23.135,23.135,23.135h36.693 C112.664,399.038,102.306,388.68,102.306,375.902z"/> <circle style="fill:#F2F2F2;" cx="256" cy="133.322" r="20.323"/> <path d="M503.597,345.164h-64.459C434.731,247.957,354.276,170.228,256,170.228c-41.822,0-82.73,14.454-115.19,40.698 c-3.609,2.917-4.169,8.209-1.251,11.817c2.917,3.609,8.21,4.168,11.816,1.251c29.48-23.834,66.635-36.96,104.624-36.96 c89.008,0,161.931,70.192,166.323,158.131h-31.88c-4.64,0-8.403,3.762-8.403,8.403c0,4.641,3.762,8.403,8.403,8.403h47.543v13.909 c0,8.124-6.609,14.733-14.733,14.733H88.749c-8.124,0-14.733-6.609-14.733-14.733v-13.909h288.417c4.641,0,8.403-3.762,8.403-8.403 c0-4.64-3.762-8.403-8.403-8.403H89.68c1.703-34.887,14.01-67.619,35.866-95.122c2.887-3.633,2.283-8.919-1.351-11.806 c-3.631-2.887-8.918-2.282-11.806,1.351c-24.244,30.507-37.821,66.854-39.537,105.577H8.403c-4.64,0-8.403,3.762-8.403,8.403 c0,4.641,3.762,8.403,8.403,8.403h48.808v13.909c0,17.39,14.148,31.538,31.538,31.538h334.503c17.39,0,31.538-14.148,31.538-31.538 v-13.909h48.808c4.64,0,8.403-3.762,8.403-8.403C512,348.927,508.238,345.164,503.597,345.164z"/> <path d="M256,162.023c15.836,0,28.72-12.884,28.72-28.72s-12.884-28.72-28.72-28.72s-28.719,12.884-28.719,28.72 S240.164,162.023,256,162.023z M256,121.389c6.57,0,11.915,5.345,11.915,11.915c0,6.57-5.345,11.915-11.915,11.915 s-11.914-5.345-11.914-11.915C244.086,126.734,249.43,121.389,256,121.389z"/> </g>

</svg>